<svg xmlns="http://www.w3.org/2000/svg" width="118" height="100" fill="none"><g clip-path="url(#a)"><path fill="#EF4444" d="M51.4 89.2c9.4 2.2 19 2.3 28.5.5 1.8-.3 2.9-2.3 2.7-4-.3-1.7-1.8-3.4-3.7-3.2l-13.5 1.3c-4.5.4-9.6.5-13.8 2.6-1.7.8-2.4 3.5-1.3 5 1.4 2.2 3.6 3 6.1 3.5l7.9 1v-7.5c-4.8.2-9.5.7-14.2 1.5-1.5.2-2.8 2-2.7 3.5 0 1.7 1 3.2 2.7 3.6a52.4 52.4 0 0 0 26.5.2c1.4-.3 3-.6 4.3-1.4 2.2-1.2 2.7-3.6 2.3-5.9-.7-3.4-3.5-6-6.7-7.3l.9 6.8c1.7-1 3-2.2 4.1-3.8l-6.8-1c0 .2.3.9.2 1 .2-.3-.1-.7 0 0 0 .4.2-.7 0 0 0 .2-.4 1 0 .2-.8 1.8-.6 4.1 1.3 5.1 1.6.9 4.2.6 5-1.3 1.1-2.2 1.5-4.6.7-6.9a3.8 3.8 0 0 0-3.1-2.6c-1.5-.2-2.9.5-3.7 1.7-.5.8.5-.4-.1.2l-.6.5c-.3.4.7-.4 0 0l-.8.5c-1.3.7-2 2.3-1.7 3.7.2 1.6 1.2 2.5 2.6 3-.9-.3 0 .1.2.2.8.5-.3-.4.2.2l.6.5-.1-.1.1.2a6.7 6.7 0 0 1 .2.3c.2.1.2.6.3.8 0 .3 0 .3 0 0-.2-.9.1-1.7 1.1-2.4 1-.5.2 0 0 0a46.7 46.7 0 0 1-7.6 1.7H69c-3 .3-5.9.4-8.8.2L58 91h-.3l-1.2-.3c-1.5-.2-3-.6-4.4-1V97a114.9 114.9 0 0 1 2-.3h.5a116.4 116.4 0 0 1 9.7-.9c1.9 0 3.8-1.6 3.7-3.7-.1-2.1-1.7-3.5-3.7-3.7l-3-.2-.8-.1-1.4-.2-2.4-.5-.5-.1c.5.2.6.2.2 0-.3-.2-.3-.1.2.2-.3-.3-.3-.2 0 .2l-1.2 5c.3 0 .3 0 0 0a16.7 16.7 0 0 1 3.5-.8c.4 0 .4 0 0 0a127.7 127.7 0 0 1 7.2-.8L79 89.9l-1-7.3-3 .5h-.3a72.1 72.1 0 0 1-16.4-.1 64.3 64.3 0 0 1-4.9-1c-1.9-.4-4 .6-4.5 2.7-.5 1.8.5 4 2.6 4.5Z"/><path fill="#EF4444" d="M44 82.6c-.9 2.9-1.3 5.8-1.5 8.8 0 1.6-.2 3.6.6 5 1.3 2.2 4 2.8 6.2 1.7 2.7-1.4 4.2-4.8 4.8-7.6.6-3.4.7-7.7-3.3-9-2.3-.7-4.7 1.3-4.7 3.6 0 1.3.2 2.6.5 3.8.6 1.8 2.7 3.2 4.6 2.6 2-.7 3.2-2.6 2.6-4.6l-.3-1.2c.2.9 0-.4 0-.6l-4.7 3.6c-.9-.3-1.5-1-1.8-1.8v-.3V88a12.8 12.8 0 0 1 0 .6l-.4 1.1c0 .2-.4 1.3-.1.5a9.6 9.6 0 0 1-.9 1.6c-.3.3-.2.2.2-.1 1.3-.2 1.6-.3 1-.4l1.8.5c1 2.6 1.5 3.3 1.4 2a21.3 21.3 0 0 1 0-2l.1-2.6v.2a29 29 0 0 1 1.1-4.7c.6-1.9-.7-4.1-2.6-4.6-2-.4-4 .6-4.6 2.6Z"/><path fill="#EF4444" d="M54.6 95.1c2 0 3.8-1.7 3.7-3.7-.1-2-1.6-3.7-3.7-3.7-2 0-3.8 1.7-3.8 3.7.1 2 1.7 3.7 3.8 3.7Z"/><path fill="#000" d="M83.3 79.5c2.2 1 4 1 5.8.9 5.8-.4 10.8-2.5 14.9-6.7a10 10 0 0 0 3-5.5c.3-2.4.8-2.6 3.2-2.3 1.4.1 2.6-.3 4-.5 1.1-.3 2.2 0 2.6 1.3.4 1.3-.4 2-1.5 2.6a16.6 16.6 0 0 0-6.7 5 23.7 23.7 0 0 1-23.5 9h-.6l-.6-.1c-.6.7-.2 1.5 0 2.3.3 3.4.4 6.9 0 10.3-.4 3-1 3.5-4 3.9l-3.3.3c-8.6 0-17 .2-25.6-.4l-7-.8c-2.7-.4-3.4-1-3.6-3.9-.4-3.8 0-7.6.7-11.4.1-.6.5-1.1 0-2a18.2 18.2 0 0 1-7.8 1.5c-6-.1-11-3.4-13-9-.7-1.8-1.2-3.5-1.7-5.3-.5-2-1.4-3.4-3.9-3.3-1.9 0-3.4-1-4.7-2.5-.7-.9-1-1.8-.1-2.7.7-.8 1.7-.8 2.4-.2a8.3 8.3 0 0 0 5.7 1.6c1.5 0 2.5.6 3 2 .8 2.1 1.7 4.2 2.3 6.3.4 1.4.8 2.7 1.5 4 2.3 4 6 5.7 11 4.8l-.1-.5a23.2 23.2 0 0 1-7-16.9c-.2-7.4.4-14.7 1.8-22 2-10 11-21.5 25.1-23a92 92 0 0 1 19.4 0c5.7.6 10.1 3.5 13.9 7.4 4.3 4.5 6.7 10 7.6 16.2.9 5.3.6 10.7.5 16 0 2.5-.7 5-1.8 7.3-1.6 3-3 6.2-4.8 9.1-1.6 2.8-4 5-7 7.2ZM67.6 18.7c-4.3-.2-8.5.4-12.7 1a25.6 25.6 0 0 0-20.7 20.4c-1.3 7.2-2 14.4-1.7 21.7 0 2.5.7 5 1.6 7.3 1.8 4.8 5.1 8 10.2 9 2.6.6 5.1 1.2 7.7 1.6A41 41 0 0 0 79.6 77c3.1-1.7 5.7-3.8 7.5-6.8 3.5-6.2 6.6-12.5 5.7-20v-1.8c0-7-1.6-13.6-4.8-19.8a16.6 16.6 0 0 0-15.2-9.8h-5.2Zm12 62.6-1.3.3a37.8 37.8 0 0 1-18 2.9c-4.5-.3-8.9-1-13.3-2-2-.4-2-.2-2.4 1.6-.4 3-.7 5.8-.6 8.8.2 3.2.3 3.3 3.4 3.7l2.1.1 20.4.6h6.7c3.3-.2 3.6-.5 3.7-3.7.2-2.7.2-5.5.2-8.2 0-1.4-.3-2.8-1-4.1ZM110.6 20.7h.8c3 .4 6 3.7 6.5 7.5.5 3-1.2 6.1-4.2 7.2-1.3.4-2.1 1-2.3 2.4 0 .6-.3 1.1-.7 1.6-.5.8-1.3 1.3-2.3.8-.8-.3-1.2-1-1-2 .1-1.3.4-2.7.8-4 .4-1.4 1.7-1.6 2.9-2 2.4-.7 3.2-1.8 2.9-3.8-.3-2.3-2.2-4.2-4.3-4.3-1 0-2.4.6-2.5-1.1-.1-1.7 1.2-1.9 2.4-2.1l1-.2ZM5.4 20.4c2.7 0 4.5 1.5 5.6 3.6 1.2 2.1.8 4.1-.6 6l-1.3 1.6c-1 1-1.3 2-.3 3.2l.5 1c.3.9.1 1.7-.7 2.2-.8.4-1.5.1-2.2-.4a5.3 5.3 0 0 1-.9-7.4l1.6-1.8c1.2-1.6 1.2-2.4.2-3.5a3 3 0 0 0-3.9-.5 3 3 0 0 0-.9.8c-.4.6-1 1.2-1.7.6-.9-.6-1-1.5-.5-2.4a5.3 5.3 0 0 1 4-2.9l1.1-.1ZM93.7 0c2.6 0 4.2 1.3 5.2 4.2.8 2.3.6 3.9-1.5 5.3-1.3 1-1.5 2-1.2 3.3.2.6.2 1.2.1 1.8 0 .9-.6 1.5-1.5 1.6-1 .2-1.7-.3-2-1.1-.4-1.8-.9-3.7-1-5.6-.2-1.2.7-2 2-2.2 1.2-.1 2.2-.5 1.9-2-.3-1.5-1.3-2.2-2.9-2-1.4 0-2.8.5-3.8 1.5-.5.5-1 .9-1.6.3-.5-.4-.4-1-.2-1.7.3-1 1-1.7 1.9-2.2C90.5.4 92-.1 93.7 0ZM107.1 48.4c-1.1 0-2.1-1-2.1-2.1 0-1.2 1.2-2.2 2.5-2.1 1.1 0 2 1.1 2 2.2-.2 1-1.2 2-2.4 2ZM98.8 20.2c0 1-.4 1.6-1.4 1.6-.9 0-1.5-.4-1.6-1.3 0-1 .5-1.6 1.4-1.7 1 0 1.5.5 1.6 1.4ZM12.5 41.5c-.2.8-.6 1.4-1.4 1.4-.9 0-1.3-.5-1.3-1.4 0-.8.5-1.3 1.3-1.3.9 0 1.3.5 1.3 1.3Z"/><path fill="#000" d="M62.7 54.2c2 .2 3.7.4 5.4 1.1 1.1.4 2 1.2 1.6 2.5-.3 1.2-1.2 1.6-2.9 1.2l-5-1.3c-1-.2-2.3-.4-2-1.9.1-1.4 1.3-1.5 2.4-1.6h.5ZM73.9 44.3c1.3 0 2.2.9 2.3 2.2.2 1.5-.9 2.6-2.2 2.6-1.2 0-2.4-1-2.5-2.2 0-1.2 1-2.5 2.4-2.6ZM54.1 48.6c0 1.2-.8 2.2-2 2.3-1.2 0-2-.8-2.2-2 0-1.3.8-2.2 2-2.3 1.2 0 2.2.9 2.2 2Z"/></g><defs><clipPath id="a"><path fill="#fff" d="M0 0h118v100H0z"/></clipPath></defs></svg>