<svg xmlns="http://www.w3.org/2000/svg" width="89" height="92" fill="none"><g clip-path="url(#a)"><path fill="#6CC5A7" d="M42.8 75.7a12 12 0 0 0-5.7-.3c-1.7.2-3.7 1-5 2.2-1.8 1.8-2 4.7 0 6.3 1.5 1.1 3.5 1.1 5.3 1 3.3-.2 8-1 9.8-4.3 1-2 .7-4.2-.7-5.9-1-1.2-2.5-2-4-2.5-4-1.3-8.5-1.3-12.6-.2l3.5 2.7a5.4 5.4 0 0 0-1.5-3.4c-1.5-1.5-4-.8-4.7 1.2-.7 2.4-.7 5-.5 7.4l.2 3.4V85c-.1.7 0-.3-.1.3l-.2 1c-.5 1.9.8 3.4 2.7 3.6l13 .7 6.5.2c2.5 0 4.7-.7 6.2-2.8 1.1-1.5 1.6-3.6 2-5.4l.6-3.6c.2-1.2.4-2.6-.3-3.7-1.5-2.4-4.5-1.9-6.7-1.4-1.8.3-3.5.9-5.2 1.6l-6 2.5c.6-.2-.2.1-.3.2a40.2 40.2 0 0 1-5.2 1.6l2.7 4.7c2-2.3 3.8-4.8 6-7a6.4 6.4 0 0 1 .3-.4c.3-.1.3-.1 0 0l.5-.2 2.2-.5 4.5-1.1 4.5-1 .6-.2c1-.2.4-.5-1.7-1-.2-.3-.2-.4-.1 0v-.2V75c0 3.2-.4 5.4-1.2 8.5l2.6-2a44.6 44.6 0 0 1-11.6-.8l.7 5.1 2.3-1.4.6-.3c.7-.3-.3.1.1 0a22 22 0 0 1 3.8-1c-.6 0 .2 0 .3-.1a17.8 17.8 0 0 1 2 0l-1.4-5.3-.4.2-.5.2a71.7 71.7 0 0 1-18.5 5h-.7l-1.5.2c-1.4.2-2.5 1-2.7 2.4-.2 1.3.6 2.9 2 3.1A135.2 135.2 0 0 0 53 90.5c1.6 0 3.5 0 5-.7 1.7-.8 2.3-2.6 2.4-4.4l.1-4.3c.2-3.7.6-6.4 1.4-10 .3-1.5-.5-3.1-2-3.5-1.4-.3-3 .4-3.4 2a78.5 78.5 0 0 0-1.6 13.2v2l-.1.8v-.3c.1.1-.3.7 0 .3.2-.4.3-.7.7-.8h.2-.5a120.5 120.5 0 0 1-24.4-1.4L30 89c8.5-.9 16.6-3 24.4-6.3 1-.5 1.6-2.1 1.3-3.2-.4-1.2-1.4-2-2.7-2-4.2-.2-8.5 1.1-11.9 3.6-1 .7-1.5 1.6-1.3 2.8.1 1 .9 2 2 2.3 4.3.9 8.7 1.2 13 1 1.3-.2 2.4-.9 2.7-2.1a42 42 0 0 0 1.4-8.4c.1-2.9.5-7.5-3.3-8-1.5-.2-3.2.4-4.7.8l-4 1-4.3 1c-1.4.3-2.8.9-3.9 2-1 1-1.9 2.2-2.8 3.4l-3.2 3.8c-.8.9-1.2 2.2-.5 3.3.7 1.1 2 1.6 3.2 1.3 3.3-.7 6.4-2.2 9.6-3.5l1-.5c.4-.2-.6.2.1 0l.5-.3a40 40 0 0 1 5.7-1.7h.5c-.7 0 0-.1.2-.1h.7c.2 0 .4 0-.2-.1l-.3-.2-1-1.4v.6l-.1.7v.1l-.3 1.6a36 36 0 0 1-1 3.7c0 .1-.2.6 0 0a6.5 6.5 0 0 1-.5 1c.3-.5 0 0-.1 0l-.1.1c.3-.2.3-.2 0 0 0 0 .7-.2 0 0H48a504.7 504.7 0 0 1-18.8-1l2.7 3.6c.6-2.4.6-5 .4-7.4L32 77c0-.6 0-1.2.2-1.7V75l.3-1-4.7 1.2c.3.3.3.2 0 0v-.5c0 1 .3 1.6 1 2.2.7.5 1.6.7 2.5.5L33 77h.5a24.8 24.8 0 0 1 3.8-.1h.6c1.2.2 2.3.5 3.5.9-.7-.2 0 0 .2 0l.6.5s-.4-.4-.2-.1l.2.2c.1 0 .2.3 0 0l.1.2s-.2-.5 0-.2l-.1-.3v-.2c0 .1-.1.4 0 0 .2-.3 0 0 0 0s.4-.3 0 0l-.1.2c-.3.3.3-.2 0 0l-.6.3c-.5.3.4 0-.1 0a18 18 0 0 1-2.8.8h-.5l-2 .2h-.9.3-.3c-.1-.1-.4-.3-.1 0 .2 0 .3 0 .5.2.5.7.5 1.4.1 2.1 0 0 .4-.3.1 0l.2-.2.3-.1.4-.2c-.3.1 0 0 .1 0l.6-.2.9-.2c-.2 0-.6 0 0 0H40.2c.4 0 .7.2 1 .3 1.5.4 3.2-.5 3.5-2 .3-1.5-.5-3-2-3.4Z"/><path fill="#000" d="M65.3 62.7c1.9-.7 3.7-1.8 5.3-3a48 48 0 0 0 11.4-12c.4-.4.8-.7 1.3-.4.4.3.5.7.4 1.1-.2.6-.4 1.2-.7 1.6-4.2 6-9.2 11.1-16 14.3-1.2.6-2.5 1-4 .7l-.3 4.2c-.2 6.2-.5 12.3-1 18.5-.2 2.1-1.6 3.5-3.7 3.6-9.4.3-18.8 1-28.3.6-4.9-.1-5.4-.6-5.2-5.5.1-4.6.9-9.1 1.7-13.6.2-1.3 0-2-1.3-2.5-2.6-1-4.8-2.6-6.7-4.6a88.9 88.9 0 0 1-15-20.1c-.2-.6-.4-1.2.3-1.5.5-.3 1 .1 1.2.5l1.9 3c3 5 6.5 9.6 10.4 14 .6.5 1.1 1 2 2.1a49 49 0 0 1 0-29.5c.8-3.3 2.7-6.2 4.6-9 1.8-2.5 4.8-3.5 7.5-4.7 4.4-1.8 9.1-2 13.7-1.4 5.8.9 11.5 2.6 16.3 6.2 4.6 3.4 7 8.2 7.8 13.7.7 4.3.4 8.8.1 13.2-.2 2.9-1.5 5.4-2.8 8l-1.2 2c0 .2.2.3.3.5Zm1.3-16.3v-3.7c-.5-8.8-4.6-15.1-13-18.3l-5.9-2c-8-2-15.5-1-22.3 4.3-1.8 1.5-3 3.3-3.7 5.5a62.5 62.5 0 0 0-2.4 23.1c.4 5 2.8 8.6 6.9 11.3a24 24 0 0 0 16 3.6l9-1.2c4.5-.9 8-3.2 10.8-7a22 22 0 0 0 4.6-15.6Zm-7.8 22.4a23.7 23.7 0 0 1-8.3 2.9 40 40 0 0 1-20.6-.4c-1.1-.4-1.5 0-1.6 1.1l-1 8.7-.4 6c0 1.9.2 2 2.2 2.1h4c7.5.2 15-.3 22.5-.7 2.5 0 2.5-.1 2.6-2.7l.2-5.8.4-11.2ZM1 14.3c.4-1.1 0-2.4-.6-3.9-1.1-2.4.2-4.9 3.2-6a6.7 6.7 0 0 0 3-2.2c2-2.4 5.2-2.8 8-1.3.5.4 1 .7 1.7.7 3.3 0 5.4 1.8 6 5.1.4 2.6.3 5.2-2.3 7-.5.3-.6.8-.7 1.4a9 9 0 0 1-1.3 3c-1.3 2-3.1 3-5.5 2.3a6.6 6.6 0 0 0-3.9.2c-3.1 1-8-1.6-7.5-6.3Zm18.7-5.9c0-1.3-.8-3.1-1.6-3.6-1.2-.8-2 0-3 .6-1.2.8-2 .4-2.2-1.3-.1-1-.5-1.2-1.4-1.2-1.7 0-2.5.4-3.3 2-.6 1.1-1.4 1.4-2.5.9L5 5.5A4.4 4.4 0 0 0 2.3 8C1.7 9 2 10.2 3 11c1 .7 1.3 1.3.5 2.5-.7 1.3-.4 2.8.7 4 1 1 3.2 1.6 4 .8 1.3-1.1 2.5-.9 3.7-.5 3.2 1 4.2-1 4.9-3.4.1-.5 0-1.1-.1-1.7 0-.7.2-1.5 1-1.5 2 0 1.7-1.6 2-2.7ZM89 24.6c0 .8-.5 1.3-1.2 1.3-3-.3-4.4 1.6-5.7 3.6l-1 1.1c-.4.3-1 .4-1.4 0-.5-.2-.7-.7-.6-1.2l.3-1.2c.4-1.8.1-2.4-1.7-3-.5-.2-1-.3-1.2-.8-.3-.4-.8-.7-.7-1.2.1-.7.8-.8 1.4-.8 3 .1 4.5-1.5 5.3-4.2.2-.6.5-1.3 1.3-1.2.9 0 1.1.8 1.2 1.6v2c.2 1.4.8 2.5 2.4 2.7.8.1 1.5.4 1.6 1.3Zm-6.6.4c.2-.4 1-.4 1-1.2-.1-.4-.3-1-.8-1.2-.6 0-1.1.4-1.2 1-.1.6.2 1 1 1.4Z"/><path fill="#000" d="M47.7 42.7c0 2.8-.5 5.5-1.7 8-.4.8-.8 1.6-1.5 2.2-1.8 1.7-3.8 1.3-4.8-.9-.8-1.7-.9-3.5-1.4-5.3-.5-1.6 0-3.6-2-4.8-.7-.4 0-1.2.7-1.4l2.7-.6c1.7-.4 3.5-.6 5.2-1.3 1.9-.7 2.6-.1 2.8 1.9v2.2Zm-2.3.7v-.6c0-1.7 0-1.7-1.7-1.5l-3.1.7c-.7.1-1 .5-.8 1.2l1.7 7c.2.5.3 1 .9 1.1.6 0 .9-.4 1.1-.9 1.2-2.1 1.7-4.4 1.9-7ZM50 35.2l-2.4.2c-.5 0-.8-.2-1-.6 0-.5.1-.9.4-1.2 1-.8 4.3-.8 5.1 0 .3.4.5.7.4 1.2-.2.4-.6.6-1 .5l-1.6-.1ZM33.8 35.3c-1-.1-1.8 0-2.7.4-.4.1-.7-.2-1-.6-.2-.5 0-1 .4-1.3 1-1 3.5-1 4.6-.2.4.4.7.7.6 1.3-.2.6-.7.6-1.2.5l-.7-.1ZM14.4 10c0 2-1.6 3.5-3.7 3.5-2 0-3-1.1-3-3.2.1-1.9 1.5-3.1 3.5-3 2 0 3.2 1 3.2 2.6Zm-2.5.2c.1-.4-.1-.6-.5-.7-.6-.1-1 .1-1.3.7-.2.5.1.8.6.9.6 0 1-.2 1.2-.9Z"/></g><defs><clipPath id="a"><path fill="#fff" d="M0 0h89v92H0z"/></clipPath></defs></svg>