<svg xmlns="http://www.w3.org/2000/svg" width="94" height="91" fill="none"><g clip-path="url(#a)"><path fill="#FCB11C" d="M42.9 67.6c-3-1.6-6.5-.6-8.7 1.7-2 2.1-3 4.9-3.2 7.7-.2 2.9.7 5.6 2.6 7.6 1.8 2.1 4.5 3 7.2 3.3 5 .3 11.1-2.7 13.4-7.3a8.6 8.6 0 0 0 0-8.1 7.3 7.3 0 0 0-8-3.6c-3.1.7-6 3.3-6.7 6.3-.9 3.3 1.4 6.3 4.3 7.8 5.3 2.7 12.8 2 16.4-3.1a6.4 6.4 0 0 0-.8-8.5c-2.4-2.2-6-2.5-9.1-2-3.1.4-7.2 2.4-7 6 .1 3.7 4.2 5 7.2 5.5 3.5.7 7 .6 10.4 0 3.6-.8 8.3-2.5 7.3-7-.4-1.9-2-3.2-3.8-4a19 19 0 0 0-14.2-1c-1.7.6-2.8 2.1-2.6 3.9.3 1.8 1.7 2.8 3.5 3a93 93 0 0 0 23.2-.3L71 69.7a32.5 32.5 0 0 1-.4.3l-1 .7a29.6 29.6 0 0 1-5.1 2.8l-.5.2c.4-.1.3-.1 0 0l-1 .4a42 42 0 0 1-9 2.2l-.7.2a4 4 0 0 0-.5 0 90 90 0 0 1-13.7.9c-1.5 0-3 1-3.4 2.5-.3 1.4.2 3.3 1.6 4 4.3 1.8 8.9 2.8 13.6 2.5 1.9 0 3.6-1.5 3.6-3.5-.1-2-1.6-3.4-3.6-3.4-5.3-.3-10.7.3-16 1.4-2 .5-2.7 2.5-2.4 4.3.6 3.4 4.3 4.2 7.1 4.4l8.5.7c5.7.3 11.5.4 17.2 0 5.2-.2 11.5-.8 14.2-5.8a8.5 8.5 0 0 0 .5-7.8c-1.1-2.5-4-4-6.9-4.1-2.8-.1-5.5 1-8 2.5a33 33 0 0 0-7 5.5c-2.4 2.5 0 6.7 3.5 5.8l7.9-1.9c-1-2.1-1.8-4.2-2.7-6.4A8.4 8.4 0 0 0 63 82c-.6 1.2-.7 2.4 0 3.5.6 1 1.8 1.9 3 1.7 6.3-.6 11.9-5 13.5-11.1.4-1.6.7-3.4.2-5-.6-2.5-2.8-3.8-5.3-3.9-1.7 0-3.5.5-5.2.8l-5.7 1c-1.8.3-3 2.6-2.5 4.3.7 1.9 2.4 2.8 4.4 2.4l8.5-1.5h.4-.4.8L74 74c-.4-.2-.7-.4-1-.8 0-.3 0-1.1-.1-.5v.7c0 .4 0-.7 0 0l-.5 1.5c0 .1-.3.8 0 .3.1-.5-.2.3-.3.4l-.7 1.3-.1.1-.5.5-1 1c-.7.6.6-.4-.1.1l-.7.4-1.2.7c-.7.3.6-.2-.1 0l-.8.3-.7.1c-.8.2.7 0-.2 0l3.1 5.3.3-.6c.2-.3.5-.5 0-.1l.5-.4c-.5.5 0 0 .3-.1a3.5 3.5 0 0 0 1.4-4.4 3.6 3.6 0 0 0-4.2-2l-7.9 1.9 3.5 5.8a31 31 0 0 1 2.7-2.5c.1 0 .7-.5.2-.1a24.6 24.6 0 0 1 4.8-3c-.7.4-.1.1 0 0l.9-.2.7-.1c.5-.2-.2 0-.2 0h1.2c.5.1-.2 0-.2 0l.5.2c-.4-.3-.4-.3-.2 0l.2.1c0-.5-.3-.3 0 0 .2.5-.4-.8-.1 0 .2.5-.2-.3 0-.3v.5c0 .8.2-.4 0 0l-.1.6-.2.4-.1.1-.3.4.3-.3-.3.3-.5.4c.2 0 .5-.3 0 0-.2 0-.3.2-.5.3l-.4.2-.5.1a13.5 13.5 0 0 1-2 .5c-.8.1-.2 0 0 0a53.7 53.7 0 0 1-4.2.3 146.5 146.5 0 0 1-24.1-.6c-.5 0-1.4 0-2-.2.6.2.6.1.3 0 0 0-.7 0-.7-.2l.4.2c-.3-.2-.3-.1 0 0l.4.6.1.2-2.4 4.3 3.6-.7.9-.2h.3a59.9 59.9 0 0 1 9.2-.4v-7a27 27 0 0 1-4.1 0h-.1a21.1 21.1 0 0 1-4.9-1.2l-.6-.3c-.1 0-.8-.3-.3 0L39 84.2c6.8-.2 13.6-.4 20.2-1.9 6.1-1.3 11.9-3.9 16.7-7.8 1.2-1 1.3-3 .6-4.2-1-1.4-2.4-1.8-4-1.6h-1a97.7 97.7 0 0 1-20.4 0l1 7c.8-.4 1.6-.6 2.4-.7h.7a16 16 0 0 1 2 0h.7a13.7 13.7 0 0 1 2.3.6l.4.2 1.1.5.5.3-.6-.5V75c-.2-.7-.1-1.2.3-1.6 0 0 .6-.3 0-.1 0 0 .7-.2.3 0l-.8.2-2.7.7-.7.1a24.6 24.6 0 0 1-4.3 0H53c-.6 0 .5.1 0 0l-1.6-.3-1.3-.3-.6-.2s.7.2 0 0c-.1 0-.3-.4.2.1l.3 1.1c.5.8.4 1.5-.2 2 0 .2-.6.4 0 .1l.4-.2.3-.1.6-.2.5-.1H53.8l.5.2c.2 0 .5.3 0 0l.3.1c.4.2-.3-.4 0 0 .3.3-.3-.6-.1-.1.2.4-.2-.6 0-.2v-.5c-.1-.5-.1.1-.2.3.1-.5.2-.4 0-.1l-.2.5c.4-.7-.3.1-.4.3 0-.1.5-.4 0 0l-.5.2-.6.3c.5-.2.2 0-.1 0l-1.2.3H51c.5 0-.1 0-.2.1H49c.8 0-.2-.1-.3-.1l-1.2-.4c.2 0 .7.3 0 0l-.5-.3c-.2 0-.3-.2-.5-.3-.2 0-.3-.3 0 0l-.3-.2c-.3-.3.3.4 0-.1.3.5 0 .3 0 0 .1.4 0 .5 0 .8 0-.5.2-.2 0 0l.3-.4c-.3.5 0 .1 0 0l.5-.5c.4-.4.1 0 0 0l.6-.4c.4-.2-.4 0 0 0h.3c-.6 0 .5 0 0 0h.1c.5.2-.6-.3-.2 0 .4.2-.4-.5-.1-.2l.3.3c.3.3-.3-.5 0 0l.2.4s-.3-.8-.1-.1c0 0 .1.4 0 .4v-.2a10 10 0 0 0 0 .3v.6c-.3.6 0-.2-.1 0l-.6 1c.4-.6.2-.2 0-.1l-.4.4c-.2.3-.5.6-.9.8.6-.4.1 0 0 0l-.7.4-1 .5s-.4.3 0 0c.4-.1-.1.1-.3.2-.6.2-1.5.5-2.2.5h.1-1.3.2l-1.3-.3c-.5-.1 0 .1.1 0l-.5-.2c-.1-.1-.5-.4-.2-.1.4.3-.1-.2-.2-.3-.5-.4 0 0 0 .1l-.4-.5-.2-.5c-.2-.4.2.6 0 0l-.1-.6a5.5 5.5 0 0 1-.1 0v-1.9c0-.4-.1.7 0 0l.4-1.2c0-.1.2-.6 0-.2-.2.5.2-.2.2-.3l.3-.5c-.3.6 0 0 .2-.2l.4-.3c-.3.3-.3.1 0 0l.4-.3c-.4.2-.5.2-.3.2l.4-.1H40c-.2 0-1.2-.4-.6 0 1.6.8 4 .4 4.9-1.3.9-1.7.4-3.8-1.3-4.8Z"/><path fill="#000" d="M56.1 90.6H33c-3.7 0-3.9-.4-4.2-4a48 48 0 0 1 2.4-19.3c.3-1 1-2-.4-3-5.6-3.7-7.7-9.4-8.6-15.6a49 49 0 0 1 11-38.7 26 26 0 0 1 10.9-7.4C50 .2 56.5-.7 63 .6a49 49 0 0 1 15.7 5.5 28.4 28.4 0 0 1 13.6 18.4 60.6 60.6 0 0 1 1.2 22.2c-1 7.1-4 13.4-10.5 17.4-1 .6-1 1.1-.3 2l1.9 2.4c.8 1.1 1.6 2.2 2 3.5 1.4 3.1.7 5.7-2.6 6.5-3.8.8-4 3-3.7 6 .2 1.4-.2 3 2 3.3.9.1.8 1.3 0 1.9-.8.5-1.6.5-2.5.5l-23.7.8v-.4ZM52.3 66c9.8 1 19-.6 28-4.3 1.6-.7 3.1-1.7 4.2-3.1A24 24 0 0 0 90 46c.7-6.1.4-12.2-.6-18.3a25.3 25.3 0 0 0-15.7-20C69.6 6 65.4 5 61.2 4.2a29 29 0 0 0-12.6.9c-3.2.9-6.1 2.6-9.3 3.6a7 7 0 0 0-3.8 2.6 50 50 0 0 0-8.7 16.5c-2.4 8.5-3 17-.2 25.5 1 3 2.6 5.6 5.1 7.6.8.6 1.5 1 2.6.9 1.7-.1 3.6-.3 4.5 1.9.2.6 1 .7 1.6.8l4.3.8c1.3.3 2.3-.1 3-1.2l5-6.5 2-3c.8-1 1.7-2.2 3.2-1.3 1.4 1 .7 2.3.1 3.4l-4.3 6.5c-.5.7-1.4 1.3-1.4 2.7Zm-18.7 6c-1.2 4.2-1.4 8-1.4 11.8 0 2.1 1.1 3.2 3.2 3.3h1.5c11.6.4 23.2.8 34.8.5 5.5-.1 5.7-.3 4.7-5.7v-.3c-.1-.8-.6-1.3-1.5-1.2h-2.2l-15.8.5c-1.3 0-2.6 0-3.6-1-.5-.4-.8-1-.6-1.6.2-.7.7-1 1.4-1h1.3l18.6-.6c1.5 0 2.2-.5 2.1-2L76 69c-.1-2-.3-2.2-2.3-1.6-7.5 2-15 2.8-22.6 1.7a4 4 0 0 0-3.9 1.5c-1.4 1.6-3 3-4.7 4-4 2.6-6.5 2-9-2.7Zm45.9-3.3.3 5.2c0 .7-.2 1.7.8 1.8.9.1 1.8-.2 2.5-.9.7-.6.3-1.3 0-2-.9-1.6-2-3-3.6-4Zm-36.3.1c-1.5-.8-2.8-.8-4-1.1-.9-.2-1.4.1-1.5 1 0 .8-.2 1.6 0 2.4 0 1.3.8 1.6 1.9 1 1.3-.9 2.5-1.9 3.6-3.3ZM10.9 12.6c0-3.6 1.6-5.6 4.5-6 .6-.2 1.2-.2 1.8 0 .4.2.8.4.9.9.1.5-.3.7-.6 1-2.3 1.6-3 3.9-2 6.6.3.7.5 1.4-.2 2-.7.4-1.4.3-2.1 0-2-1-2.2-2.9-2.3-4.5ZM0 12.2a6 6 0 0 1 2.8-4.7c.6-.4 1.3-.7 2-.6.6 0 1.2.2 1.4.7.2.6-.2 1-.7 1.2-.5.4-1 .7-1.4 1.2-1.4 1.8-1 3.6 1 5.3.6.5 1.5.8 1 1.7-.3.7-1.2.8-2 .8-2.4-.1-4.2-2.2-4.1-5.6Z"/><path fill="#000" d="M80.8 38.4c0 1.7-1.8 3.4-3.5 3.5-1.5 0-2.5-1-2.5-2.6 0-1.7 1.6-3.4 3.4-3.4 1.4 0 2.7 1.2 2.6 2.5ZM57 40.2c0 1.2-1 2.1-2.1 2.1-1.2 0-2.3-1-2.3-2.1 0-1 1.5-2.3 2.7-2.2 1.3.1 1.7 1 1.8 2.2ZM65.8 46.3c-.2 0-.6 0-1-.2-.8-.2-1-1.2-.3-1.6a4 4 0 0 1 1.7-.7c1.1 0 2.6-.4 2.8 1.2.1 1.6-1.5 1-2.4 1.2h-.8Z"/></g><defs><clipPath id="a"><path fill="#fff" d="M0 0h94v91H0z"/></clipPath></defs></svg>